<?xml version="1.0" encoding="UTF-8" standalone="no"?>
<!-- Created with Inkscape (http://www.inkscape.org/) -->
<svg
   xmlns:svg="http://www.w3.org/2000/svg"
   xmlns="http://www.w3.org/2000/svg"
   version="1.0"
   width="315.14999"
   height="220"
   id="svg2">
  <defs
     id="defs4" />
  <g
     transform="translate(-195,-328.2066)"
     id="layer1">
    <path
       d="M 314.13572,531.08153 C 307.35929,527.16486 301.77437,523.83862 301.72479,523.68988 C 301.67521,523.54114 301.8138,523.17443 302.03277,522.87498 C 302.40027,522.37239 303.33139,522.85122 314.13924,529.10071 C 320.57883,532.82431 326.06286,535.92735 326.32599,535.99635 C 326.58911,536.06535 332.05914,533.0852 338.48161,529.3738 L 350.15883,522.62578 L 350.69585,523.33773 C 351.1977,524.00304 351.19919,524.06814 350.7187,524.33195 C 350.43591,524.48721 344.90236,527.67339 338.42191,531.41236 C 331.94147,535.15132 326.59816,538.20873 326.5479,538.2066 C 326.49763,538.20447 320.91215,534.99819 314.13572,531.08153 z M 315.34927,524.82519 C 309.5752,521.48862 304.81233,518.64279 304.76512,518.50114 C 304.7179,518.35949 304.86301,517.99231 305.08758,517.68518 C 305.46893,517.16366 306.18799,517.52468 315.9762,523.15205 C 321.74037,526.46596 326.57195,529.27697 326.71306,529.39875 C 326.98509,529.63352 326.43444,530.90746 326.06522,530.89754 C 325.94552,530.89433 321.12334,528.16177 315.34927,524.82519 z M 284.59298,517.81152 L 284.59298,508.98213 L 285.88694,508.98987 L 287.18091,508.99762 L 291.67089,515.76415 L 296.16087,522.53069 L 296.1617,515.75641 L 296.16254,508.98213 L 297.38038,508.98213 L 298.59823,508.98213 L 298.59823,517.81152 L 298.59823,526.64092 L 297.30427,526.63317 L 296.0103,526.62543 L 291.52032,519.85889 L 287.03034,513.09236 L 287.02951,519.86664 L 287.02868,526.64092 L 285.81083,526.64092 L 284.59298,526.64092 L 284.59298,517.81152 z M 354.31478,517.81152 L 354.31478,508.98213 L 355.60874,508.98987 L 356.90271,508.99762 L 361.39269,515.76415 L 365.88267,522.53069 L 365.8835,515.75641 L 365.88433,508.98213 L 367.10218,508.98213 L 368.32003,508.98213 L 368.32003,517.81152 L 368.32003,526.64092 L 367.02607,526.63317 L 365.7321,526.62543 L 361.24212,519.85889 L 356.75214,513.09236 L 356.75131,519.86664 L 356.75048,526.64092 L 355.53263,526.64092 L 354.31478,526.64092 L 354.31478,517.81152 z M 290.75552,491.59399 L 290.83445,476.3371 L 308.2649,466.27663 L 325.69535,456.21616 L 325.69535,436.77538 L 325.69535,417.33458 L 306.18303,417.41293 L 286.67071,417.49129 L 276.72633,434.75669 L 266.78195,452.02208 L 246.03202,452.03491 L 225.28209,452.04773 L 215.14,434.47025 C 209.56185,424.80264 204.99791,416.68189 204.99791,416.42413 C 204.99791,416.16639 209.56343,408.04633 215.14351,398.37956 L 225.2891,380.80361 L 245.43027,380.80361 L 265.57144,380.80361 L 272.51766,368.77917 C 279.15048,357.29722 279.49373,356.77023 280.12554,357.09862 C 280.48946,357.28776 280.82902,357.47719 280.88012,357.51957 C 280.93122,357.56195 277.87241,362.96632 274.08275,369.52929 C 270.29309,376.09226 267.25783,381.62211 267.33771,381.81783 C 267.4176,382.01356 271.7986,389.64063 277.07327,398.76687 L 286.66357,415.36005 L 306.17946,415.43841 L 325.69535,415.51676 L 325.69535,401.81373 L 325.69535,388.11071 L 326.60874,388.11071 L 327.52212,388.11071 L 327.52212,401.81149 L 327.52212,415.51228 L 346.94138,415.51228 L 366.36064,415.51228 L 376.38027,398.15795 L 386.3999,380.80361 L 407.12113,380.80768 L 427.84235,380.81175 L 437.84265,398.16201 L 447.84295,415.51228 L 462.73242,415.51228 L 477.62189,415.51228 L 477.62189,416.42567 L 477.62189,417.33906 L 462.73563,417.33906 L 447.84937,417.33906 L 437.84587,434.69192 L 427.84235,452.04477 L 407.11906,452.04625 L 386.39576,452.04773 L 376.37226,434.69339 L 366.34876,417.33906 L 346.93321,417.33906 L 327.51765,417.33906 L 327.596,436.8582 L 327.67435,456.37734 L 344.94306,466.3149 L 362.21176,476.25245 L 362.22128,491.55167 L 362.23079,506.85088 L 361.46964,506.85088 L 360.70848,506.85088 L 360.70848,492.13023 L 360.70848,477.40957 L 344.03616,467.79176 C 334.86639,462.50197 327.14172,458.08872 326.87022,457.98453 C 326.54897,457.86125 320.48977,461.19449 309.51891,467.5297 L 292.66122,477.26429 L 292.58221,492.05759 L 292.5032,506.85088 L 291.58989,506.85088 L 290.67659,506.85088 L 290.75552,491.59399 z M 275.43585,433.47357 L 285.26851,416.42171 L 275.42686,399.37162 L 265.58522,382.32153 L 245.95698,382.39985 L 226.32874,382.47816 L 216.64938,399.22357 C 211.32573,408.43355 206.96667,416.15976 206.96259,416.39292 C 206.95627,416.75388 225.39314,449.06179 226.22351,450.14483 C 226.45158,450.44231 230.78268,450.52542 246.05924,450.52542 L 265.60319,450.52542 L 275.43585,433.47357 z M 229.18089,445.34956 L 229.18089,444.43618 L 245.9263,444.43618 L 262.67171,444.43618 L 262.67171,445.34956 L 262.67171,446.26295 L 245.9263,446.26295 L 229.18089,446.26295 L 229.18089,445.34956 z M 212.59252,416.3146 C 212.0582,415.9239 212.45839,415.14627 219.29083,403.29885 C 223.28745,396.36873 227.01451,389.91552 227.57318,388.95838 C 228.53747,387.30632 228.6275,387.23567 229.3495,387.56464 C 229.7678,387.75523 230.07224,388.00502 230.02605,388.11971 C 229.70632,388.91346 213.48474,416.73013 213.34157,416.73013 C 213.24215,416.73013 212.90507,416.54315 212.59252,416.3146 z M 278.08881,416.04509 C 277.10214,414.46942 262.38655,388.83337 262.22834,388.41454 C 262.07894,388.01907 263.16703,386.96545 263.42855,387.25234 C 263.47729,387.30581 267.2317,393.78892 271.77169,401.65927 C 279.20217,414.54047 279.97479,416.00697 279.51124,416.34956 C 278.79642,416.87784 278.58145,416.83183 278.08881,416.04509 z M 436.40311,433.70389 C 441.74194,424.45205 446.11008,416.67685 446.11008,416.42567 C 446.11008,416.17449 441.73972,408.3983 436.39817,399.14525 L 426.68627,382.32151 L 407.05925,382.39984 L 387.43222,382.47816 L 377.83599,399.07134 C 372.55806,408.19758 368.17718,415.88959 368.10069,416.16467 C 367.98689,416.57399 376.53999,431.74242 385.88785,447.70914 L 387.53666,450.52542 L 407.1164,450.52542 L 426.69615,450.52542 L 436.40311,433.70389 z M 389.53634,445.4265 C 374.57721,419.64903 373.09275,416.94636 373.664,416.52864 C 373.97663,416.30004 374.33703,416.1491 374.4649,416.19322 C 374.7271,416.28369 391.23553,444.7701 391.09366,444.88727 C 390.63741,445.26415 389.64211,445.60877 389.53634,445.4265 z M 423.61845,445.20274 C 423.07934,444.7945 423.49873,443.9903 431.26767,430.53494 C 435.78844,422.70521 439.61285,416.2572 439.76635,416.20603 C 439.91986,416.15487 440.28743,416.28994 440.58317,416.50619 C 441.07644,416.86688 440.43519,418.08764 432.82443,431.2767 C 428.26138,439.18423 424.45166,445.64967 424.35839,445.64434 C 424.26512,445.63901 423.93214,445.44029 423.61845,445.20274 z M 390.54576,387.50178 L 390.54576,386.58839 L 407.13894,386.58839 L 423.73212,386.58839 L 423.73212,387.50178 L 423.73212,388.41517 L 407.13894,388.41517 L 390.54576,388.41517 L 390.54576,387.50178 z M 354.61924,493.60679 L 354.61924,480.36269 L 355.3804,480.36269 L 356.14155,480.36269 L 356.14155,493.60679 L 356.14155,506.85088 L 355.3804,506.85088 L 354.61924,506.85088 L 354.61924,493.60679 z M 297.67999,480.35362 C 297.48418,479.98775 297.43942,479.58598 297.58052,479.46079 C 297.72163,479.33561 304.18493,475.57178 311.94342,471.09673 C 325.14226,463.48371 326.07687,462.99609 326.47117,463.51712 C 326.70295,463.82339 326.85945,464.18729 326.81895,464.32578 C 326.75504,464.54437 299.34616,480.50525 298.39323,480.87881 C 298.19676,480.95583 297.8758,480.71949 297.67999,480.35362 z M 485.13717,425.72735 C 483.21927,425.04334 482.2173,424.03571 481.0345,421.60152 C 480.32905,420.14973 480.22009,419.54225 480.21532,417.0346 C 480.20924,413.83727 480.83567,411.9163 482.43348,410.23243 C 484.25024,408.31786 487.62422,407.45027 490.36744,408.1923 C 491.95765,408.62245 493.87144,410.34352 494.51365,411.92102 L 494.97283,413.04891 L 493.83279,413.36402 C 493.20578,413.53735 492.65797,413.57783 492.61544,413.45399 C 492.3064,412.55406 491.16511,411.14479 490.33596,410.63925 C 488.13351,409.29639 484.76091,410.3345 483.40667,412.77212 C 482.74433,413.96433 482.64551,414.51771 482.64551,417.0346 C 482.64551,419.55148 482.74433,420.10486 483.40667,421.29707 C 484.4234,423.12717 486.30453,424.13028 488.37685,423.94741 C 490.20751,423.78586 491.25849,423.03337 492.23607,421.18425 C 492.96881,419.79823 493.03699,419.75176 494.06284,419.93902 C 494.64893,420.04599 495.17224,420.1765 495.22575,420.22904 C 495.54796,420.54535 493.79125,423.61331 492.80411,424.45828 C 490.85648,426.12537 487.71242,426.64579 485.13717,425.72735 z M 498.02085,417.0346 L 498.02085,408.2052 L 499.08646,408.2052 L 500.15208,408.2052 L 500.15208,417.0346 L 500.15208,425.86399 L 499.08646,425.86399 L 498.02085,425.86399 L 498.02085,417.0346 z M 323.65339,385.55682 C 321.71479,384.92305 320.05218,383.43638 319.08943,381.47584 C 318.33638,379.94236 318.23603,379.39788 318.23603,376.84561 C 318.23603,374.29075 318.33599,373.74965 319.09265,372.20878 C 320.92477,368.47782 324.72601,366.91052 328.91306,368.1597 C 332.13936,369.12224 334.1267,371.94272 334.43309,375.99385 C 334.85785,381.61016 331.82419,385.5574 326.85105,385.85921 C 325.72624,385.92748 324.40497,385.80253 323.65339,385.55682 z M 329.57257,382.74397 C 331.04526,381.57002 331.80283,380.02144 332.00724,377.76712 C 332.32064,374.31098 331.03433,371.52045 328.62308,370.42546 C 325.47555,368.9961 321.95379,370.60403 320.96903,373.92007 C 319.3469,379.38238 322.06025,384.06134 326.68018,383.7685 C 328.06302,383.68085 328.66459,383.46776 329.57257,382.74397 z M 337.56937,376.84561 L 337.56937,368.01622 L 338.78722,368.01622 L 340.00506,368.01622 L 340.00506,371.66975 L 340.00506,375.3233 L 344.57199,375.3233 L 349.13892,375.3233 L 349.13892,371.66975 L 349.13892,368.01622 L 350.35677,368.01622 L 351.57462,368.01622 L 351.57462,376.84561 L 351.57462,385.67501 L 350.35677,385.67501 L 349.13892,385.67501 L 349.13892,381.56478 L 349.13892,377.45453 L 344.57199,377.45453 L 340.00506,377.45453 L 340.00506,381.56478 L 340.00506,385.67501 L 338.78722,385.67501 L 337.56937,385.67501 L 337.56937,376.84561 z M 283.58332,356.00555 C 281.66543,355.32154 280.66345,354.31391 279.48065,351.87972 C 278.7752,350.42792 278.66624,349.82045 278.66147,347.3128 C 278.65539,344.11548 279.28182,342.1945 280.87964,340.51063 C 282.69639,338.59606 286.07037,337.72847 288.81359,338.4705 C 290.40381,338.90065 292.3176,340.62173 292.95981,342.19921 L 293.41898,343.3271 L 292.27895,343.64223 C 291.65193,343.81554 291.10412,343.85602 291.06159,343.73219 C 290.75255,342.83226 289.61126,341.42299 288.78211,340.91745 C 286.57966,339.57459 283.20706,340.6127 281.85282,343.05033 C 281.19048,344.24254 281.09167,344.7959 281.09167,347.3128 C 281.09167,349.82968 281.19048,350.38305 281.85282,351.57526 C 282.86954,353.40537 284.75068,354.40848 286.82301,354.22561 C 288.65366,354.06406 289.70464,353.31157 290.68222,351.46245 C 291.41497,350.07644 291.48314,350.02996 292.50899,350.21721 C 293.09508,350.3242 293.61839,350.45471 293.67191,350.50724 C 293.99411,350.82355 292.23741,353.89151 291.25026,354.73648 C 289.30263,356.40357 286.15857,356.92399 283.58332,356.00555 z M 296.77146,347.3128 L 296.77146,338.4834 L 297.83708,338.4834 L 298.90269,338.4834 L 298.90269,347.3128 L 298.90269,356.1422 L 297.83708,356.1422 L 296.77146,356.1422 L 296.77146,347.3128 z"
       id="path2470"
       style="fill:#000000" />
  </g>
</svg>
